<svg width="576" height="120" viewBox="0 0 576 120" fill="none" xmlns="http://www.w3.org/2000/svg">
<path d="M511.241 27.3971C519.201 23.2806 527.317 17.8978 534.434 12.3939C538.242 9.4488 542.34 6.92345 546.025 3.87491C546.544 3.44529 547.823 1.41923 548.595 2.08298C549.812 3.13064 550.992 4.94997 551.736 6.36577C553.899 10.4785 556.883 14.6058 559.939 18.0694C562.364 20.8168 564.333 23.1371 566.176 26.3298C567.184 28.076 569.688 30.459 569.508 32.4004C569.008 37.8128 563.95 42.8258 560.479 46.3669C555.379 51.5703 550.382 56.7995 544.316 60.7988C540.554 63.2796 536.313 64.5896 532.465 66.8111C528.92 68.8575 529.211 68.5829 525.836 65.6092C522.511 62.6803 520.454 59.5022 518.198 55.5955C517.024 53.5617 514.925 51.8055 513.292 50.1253C512.055 48.8527 511.606 46.68 510.939 45.0785C510.24 43.3989 510.302 38.5822 508.768 37.5789C507.264 36.5954 505.519 34.4336 505.942 32.4971C506.286 30.9159 519.454 21.6472 508.457 31.9939" stroke="#00ADB5" stroke-opacity="0.5" stroke-linecap="round" stroke-linejoin="round"/>
<path d="M507.051 34.9409C510.047 36.3956 512.962 38.4848 515.928 39.8502C516.914 40.3039 518.597 40.2188 519.392 40.8397C521.544 42.5206 527.761 41.4998 530.401 41.7422C533.382 42.0158 541.549 46.1038 542.644 41.0791C544.702 31.6337 547.006 22.2314 549.056 12.8242C549.444 11.0468 548.921 9.29218 549.274 7.66926C550.351 2.7288 545.611 5.8464 544.008 6.77175" stroke="#00ADB5" stroke-opacity="0.5" stroke-linecap="round" stroke-linejoin="round"/>
<path d="M19.8049 73.8232C37.9772 65.2806 53.4453 52.7889 68.9039 40.9114C81.0536 31.5763 93.7267 22.2772 106.864 13.9243C109.456 12.2761 113.233 9.12037 116.313 9.94018C119.365 10.7526 120.774 13.7371 123.052 15.3428C128.662 19.2971 133.496 24.3555 137.88 29.2497C142.705 34.6374 133.748 38.9214 127.948 43.4521C121.361 48.5985 115.022 53.8548 107.957 58.5361C101.242 62.9859 95.5454 68.7205 89.2847 73.6078C79.743 81.0561 70.7018 88.8607 61.1842 96.3128C55.5185 100.749 49.1959 104.561 43.7009 109.113C41.7755 110.708 39.9172 112.739 37.7592 114.129C36.0261 115.246 34.3096 111.891 33.8336 111.276C30.055 106.396 23.5528 103.496 19.9028 98.3579C17.608 95.1273 16.3407 90.965 13.4538 88.1034C12.0756 86.7373 8.57666 83.7068 10.6359 81.2552C12.7384 78.7521 17.9513 77.0818 20.9406 75.123C23.2708 73.596 26.1069 71.7154 28.6796 70.5469C30.5494 69.6978 32.4566 68.3502 34.1715 67.2848C38.6844 64.4809 34.1075 65.9759 31.1543 67.1607" stroke="#00ADB5" stroke-opacity="0.5" stroke-linecap="round" stroke-linejoin="round"/>
<path d="M20.9682 84.1044C30.7425 88.1576 39.1099 94.67 46.2697 101.215C46.451 101.381 48.2907 102.276 47.9288 102.724C47.2302 103.589 40.9159 100.744 40.315 100.456" stroke="#00ADB5" stroke-opacity="0.5" stroke-linecap="round" stroke-linejoin="round"/>
<path d="M32.4317 75.3786C40.6735 76.3861 45.2285 79.5491 51.5473 82.7715C54.362 84.2069 57.2577 85.4625 59.7151 87.2459C60.8691 88.0833 61.6084 89.2735 62.6534 90.1989C64.0859 91.4672 57.8479 89.0784 57.1119 88.8052" stroke="#00ADB5" stroke-opacity="0.5" stroke-linecap="round" stroke-linejoin="round"/>
<path d="M45.6208 68.1324C50.9772 71.7902 56.3732 75.3849 61.9406 78.848C64.0557 80.1636 66.5045 81.3141 68.2623 82.9458C71.3826 85.8422 67.2906 82.0886 65.8666 81.0591" stroke="#00ADB5" stroke-opacity="0.5" stroke-linecap="round" stroke-linejoin="round"/>
<path d="M54.5435 63.0746C58.6624 64.7407 62.9874 66.318 66.3241 68.8131C67.6928 69.8365 68.7701 71.1029 70.2572 72.0265C72.0892 73.1643 73.6388 74.5574 75.4894 75.6555C78.1246 77.2191 78.4836 77.7216 75.3707 75.7373" stroke="#00ADB5" stroke-opacity="0.5" stroke-linecap="round" stroke-linejoin="round"/>
<path d="M66.1896 55.5229C70.6384 58.046 74.7172 60.6574 78.2732 63.9448C79.8482 65.4007 81.0369 67.1519 83.1517 68.1673C85.089 69.0977 86.5137 69.2696 84.3196 67.6509" stroke="#00ADB5" stroke-opacity="0.5" stroke-linecap="round" stroke-linejoin="round"/>
<path d="M77.4516 47.8948C81.3837 50.0086 85.2868 51.9032 88.2509 54.861C89.6078 56.215 90.6025 57.8346 92.1593 59.0493C95.3206 61.5159 93.0733 60.3457 90.7686 58.6893" stroke="#00ADB5" stroke-opacity="0.5" stroke-linecap="round" stroke-linejoin="round"/>
<path d="M87.9422 40.1137C93.324 44.0763 97.6159 48.9429 103.016 52.8473C106.653 55.4764 101.516 51.1863 100.685 50.415" stroke="#00ADB5" stroke-opacity="0.5" stroke-linecap="round" stroke-linejoin="round"/>
<path d="M100.353 33.472C105.659 31.2378 111.198 28.6626 114.492 24.2861C115.4 23.0792 116.504 21.9935 116.99 20.6937C117.656 18.9087 117.469 19.6633 115.711 20.967" stroke="#00ADB5" stroke-opacity="0.5" stroke-linecap="round" stroke-linejoin="round"/>
<path d="M107.742 38.1606C112.182 34.7083 117.135 30.9257 120.613 26.785C122.348 24.7197 125.471 22.0862 121.173 25.2737" stroke="#00ADB5" stroke-opacity="0.5" stroke-linecap="round" stroke-linejoin="round"/>
<path d="M119.76 43.0089C123.871 39.3954 127.547 36.0512 131.387 32.3241C132.627 31.1199 136.143 29.3439 132.029 30.6499" stroke="#00ADB5" stroke-opacity="0.5" stroke-linecap="round" stroke-linejoin="round"/>
<path d="M117.07 41.7169C121.275 38.6434 126.041 35.0795 129.546 31.4006C130.481 30.4193 131.243 29.3574 132.114 28.3489C133.574 26.6597 133.58 27.1742 131.671 27.5447" stroke="#00ADB5" stroke-opacity="0.5" stroke-linecap="round" stroke-linejoin="round"/>
<path d="M30.5809 88.2857C50.5615 79.9017 57.6363 62.4279 74.5446 51.1004C76.6014 49.7224 78.3208 48.2542 80.6425 47.1998C82.1949 46.4948 84.0551 46.0322 85.496 45.1912C86.3749 44.6781 93.769 39.7302 88.7946 41.9893" stroke="#00ADB5" stroke-opacity="0.5" stroke-linecap="round" stroke-linejoin="round"/>
<path d="M22.3136 84.7503C24.7503 82.4128 26.9043 80.4044 29.8363 78.5827C30.3172 78.284 31.0116 78.1649 31.4248 77.7915C32.2435 77.0518 33.479 75.966 33.8774 75.0856C35.4465 71.6181 40.7524 71.6326 43.8491 69.6353C46.7949 67.7352 49.6419 65.8269 52.6381 63.94C55.9391 61.8612 57.5664 60.1801 60.3331 57.6802C62.8746 55.3839 65.3533 53.0714 68.0117 50.8692C70.1864 49.0676 73.4578 47.2843 74.9838 45.1193C76.7061 42.6759 80.6585 39.6575 83.8292 39.7196C84.9183 39.7409 92.5402 42.627 87.5508 40.7946" stroke="#00ADB5" stroke-opacity="0.5" stroke-linecap="round" stroke-linejoin="round"/>
<path d="M38.4688 90.9876C53.6782 83.2866 63.4979 69.1106 74.595 57.9901C78.6824 53.894 84.1301 50.8662 88.3756 46.8158C90.1915 45.0834 93.9537 43.0378 89.8416 43.5245" stroke="#00ADB5" stroke-opacity="0.5" stroke-linecap="round" stroke-linejoin="round"/>
<path d="M43.0729 94.1758C56.9816 86.2842 66.9806 73.3801 77.7691 62.8332C82.6773 58.035 87.4481 53.163 92.4044 48.394C94.664 46.2197 98.2998 44.6123 93.5738 47.1088" stroke="#00ADB5" stroke-opacity="0.5" stroke-linecap="round" stroke-linejoin="round"/>
<path d="M47.2637 100.317C56.2706 93.0384 63.7834 85.4316 71.4532 77.3207C76.1168 72.3888 80.3102 66.9625 85.6156 62.3979C88.6597 59.7789 91.1326 56.8343 93.9453 54.1042C95.0784 53.0044 95.9256 51.7759 97.0851 50.6812C99.697 48.2154 97.8122 50.3926 96.0407 51.77" stroke="#00ADB5" stroke-opacity="0.5" stroke-linecap="round" stroke-linejoin="round"/>
<path d="M48.7853 102.894C53.2696 99.2575 59.6169 95.5302 62.8877 91.0985C64.0752 89.4895 67.0013 85.5983 68.8275 84.4906C71.2416 83.0264 72.6708 80.3264 74.5311 78.5207C76.4683 76.6403 78.3639 74.8048 80.4344 72.9908C82.376 71.2897 83.2988 68.5824 85.6231 67.0452C88.2124 65.3329 89.6859 62.9662 91.8311 61.0279C93.6878 59.3502 97.042 57.4517 99.2464 56.0821C100.468 55.3233 101.379 54.3733 102.73 53.7598C105.468 52.5163 103.709 53.1928 101.334 53.3882" stroke="#00ADB5" stroke-opacity="0.5" stroke-linecap="round" stroke-linejoin="round"/>
<path d="M99.8598 34.7015C103.104 35.0359 107.158 35.0611 110 36.1852C111.834 36.9106 113.414 37.6682 110.074 36.3473" stroke="#00ADB5" stroke-opacity="0.5" stroke-linecap="round" stroke-linejoin="round"/>
<path d="M103.956 29.8247C108.586 30.2926 111.799 31.0385 115.404 32.6421C117.761 33.6906 117.404 33.3671 114.934 32.3805" stroke="#00ADB5" stroke-opacity="0.5" stroke-linecap="round" stroke-linejoin="round"/>
<path d="M110.37 24.6492C114.207 26.0428 117.887 27.7028 121.896 28.8413C124.255 29.5109 122.957 29.5909 121.139 29.0598" stroke="#00ADB5" stroke-opacity="0.5" stroke-linecap="round" stroke-linejoin="round"/>
<path d="M114.17 20.6614C118.256 21.756 122.006 22.8817 125.694 24.4213C127.376 25.1233 125.727 25.3655 124.458 24.7872" stroke="#00ADB5" stroke-opacity="0.5" stroke-linecap="round" stroke-linejoin="round"/>
<path d="M102.191 32.8884C105.877 29.4136 109.551 26.1008 112.957 22.5808C113.924 21.5807 119.752 15.9634 117.177 18.7927" stroke="#00ADB5" stroke-opacity="0.5" stroke-linecap="round" stroke-linejoin="round"/>
<path d="M104.849 37.9663C109.5 34.4828 116.159 29.7872 118.151 25.138C118.737 23.7697 119.793 22.3496 121.198 21.2963C122.622 20.228 124.035 19.6594 121.883 21.4321" stroke="#00ADB5" stroke-opacity="0.5" stroke-linecap="round" stroke-linejoin="round"/>
<path d="M101.468 38.2445C106.526 33.8295 110.749 30.7698 113.969 25.6682C114.805 24.3433 115.709 23.2216 116.933 22.1156C118.23 20.9435 120.02 19.7816 117.535 21.8979" stroke="#00ADB5" stroke-opacity="0.5" stroke-linecap="round" stroke-linejoin="round"/>
<path d="M117.969 38.2921C119.9 39.1191 121.847 39.8678 123.884 40.5078C124.725 40.7721 123.72 40.1908 123.357 40.1188" stroke="#00ADB5" stroke-opacity="0.5" stroke-linecap="round" stroke-linejoin="round"/>
<path d="M122.749 32.6024C122.876 32.6827 130.262 37.3982 128.988 36.3047" stroke="#00ADB5" stroke-opacity="0.5" stroke-linecap="round" stroke-linejoin="round"/>
<path d="M127.885 30.0179C129.493 31.2108 134.445 34.6715 132.678 33.623" stroke="#00ADB5" stroke-opacity="0.5" stroke-linecap="round" stroke-linejoin="round"/>
<path d="M115.245 40.7861C118.543 38.2147 125.711 33.0492 127.794 29.431C128.616 28.0052 131.755 25.9395 128.771 28.1076" stroke="#00ADB5" stroke-opacity="0.5" stroke-linecap="round" stroke-linejoin="round"/>
<path d="M115.528 41.4112C115.787 41.5621 120.81 45.8711 122.363 43.3351C123.155 42.0407 124.187 40.3547 125.806 39.5088C128.647 38.0247 129.66 34.2392 132.539 32.9318C135.805 31.4486 135.78 29.5776 132.98 29.2264C131.879 29.0885 133.027 27.1859 131.827 27.4597C130.728 27.7104 130.2 27.4536 128.966 27.7671" stroke="#00ADB5" stroke-opacity="0.5" stroke-linecap="round" stroke-linejoin="round"/>
<path d="M99.5758 34.0764C101.116 36.8682 101.334 37.9185 104.321 38.8204C105.127 39.0638 106.306 38.4689 106.917 38.6608C108.125 39.0405 110.656 38.7679 111.745 37.7112C113.934 35.5864 114.813 34.2747 117.922 32.7833C119.883 31.8424 121.618 29.946 122.678 28.4166C123.843 26.7356 125.711 25.3581 126.929 23.6652C127.448 22.9443 124.259 21.5944 124.39 20.4331C124.427 20.1039 120.355 20.5501 119.716 20.3493C118.941 20.1059 118.631 19.6755 118.334 19.0218C117.9 18.0669 116.703 19.4468 115.143 19.7166" stroke="#00ADB5" stroke-opacity="0.5" stroke-linecap="round" stroke-linejoin="round"/>
<path d="M26.409 79.8736C30.8397 80.7701 34.6215 82.1422 38.5068 83.6944C41.88 85.042 45.8378 85.5181 49.1955 86.8144C51.586 87.7373 53.8571 90.201 55.4931 91.803C56.0383 92.3367 56.4295 92.8495 56.7809 93.4805C57.5873 94.9283 57.048 91.2704 56.9972 90.8686" stroke="#00ADB5" stroke-opacity="0.5" stroke-linecap="round" stroke-linejoin="round"/>
<path d="M75.0516 46.4708C76.184 47.4108 80.5474 52.8116 80.1485 48.4295" stroke="#00ADB5" stroke-opacity="0.5" stroke-linecap="round" stroke-linejoin="round"/>
</svg>
